<?xml version="1.0" standalone="no"?>
<!DOCTYPE svg PUBLIC "-//W3C//DTD SVG 20010904//EN"
 "http://www.w3.org/TR/2001/REC-SVG-20010904/DTD/svg10.dtd">
<svg version="1.0" xmlns="http://www.w3.org/2000/svg"
 width="500.000000pt" height="500.000000pt" viewBox="0 0 500.000000 500.000000"
 preserveAspectRatio="xMidYMid meet">

    <g transform="translate(0.000000,500.000000) scale(0.100000,-0.100000)"
       fill="currentColor" stroke="none">
<path d="M4140 4624 c-277 -85 -516 -200 -760 -364 -269 -182 -549 -451 -739
-713 l-61 -83 -222 -38 c-205 -34 -1137 -212 -1780 -340 -279 -55 -308 -66
-308 -112 0 -25 115 -140 365 -365 199 -179 399 -358 578 -518 76 -68 142
-132 148 -143 19 -35 70 -23 133 32 152 133 378 282 477 315 28 9 52 15 54 13
2 -2 -23 -39 -56 -82 -63 -85 -73 -122 -41 -153 10 -10 92 -72 182 -138 90
-66 216 -159 279 -206 171 -126 197 -142 223 -136 14 4 52 44 93 99 l70 93 3
-49 c6 -98 -59 -343 -144 -543 -25 -58 -44 -117 -42 -131 3 -29 117 -137 413
-392 99 -85 258 -222 354 -305 299 -258 368 -315 384 -315 23 0 75 33 80 50 2
9 0 65 -4 125 -35 497 -107 1616 -120 1867 -8 164 -8 246 0 297 6 38 11 112
11 164 0 91 1 95 33 138 231 303 433 726 522 1092 59 242 92 532 82 731 -4 98
-7 112 -27 128 -30 24 -47 23 -180 -18z m80 -226 c0 -161 -40 -481 -61 -494
-10 -6 -509 356 -509 369 0 25 499 237 558 237 9 0 12 -29 12 -112z m-394
-418 c159 -117 293 -216 297 -220 11 -10 -72 -253 -136 -400 -30 -69 -80 -172
-112 -230 -61 -113 -213 -348 -239 -369 -13 -11 -80 35 -453 309 -241 177
-447 330 -457 340 -18 18 -17 21 65 127 99 128 359 391 477 483 127 99 246
180 258 176 6 -3 141 -100 300 -216z m-954 -842 c128 -94 274 -201 323 -238
50 -37 144 -106 210 -155 66 -48 124 -91 129 -96 20 -18 -226 -273 -395 -409
-55 -46 -153 -118 -217 -161 l-116 -78 -50 37 c-196 142 -475 348 -493 364
l-21 20 20 71 c54 192 134 395 225 567 55 105 142 250 149 250 2 0 108 -77
236 -172z m-711 134 c-18 -15 -77 -61 -130 -104 -266 -211 -478 -534 -615
-938 -25 -73 -47 -134 -49 -136 -4 -4 -128 105 -548 481 -299 268 -402 367
-392 376 9 8 30 12 973 195 602 117 778 151 790 152 3 1 -10 -11 -29 -26z
m268 -44 c-109 -184 -237 -491 -290 -692 -19 -75 -28 -86 -75 -86 -80 0 -234
-70 -405 -185 -62 -41 -115 -73 -117 -70 -8 8 58 175 115 290 132 265 311 484
522 641 80 59 245 154 268 154 7 0 0 -21 -18 -52z m1131 -900 c-69 -323 -233
-605 -503 -864 -98 -95 -247 -217 -255 -209 -2 2 11 47 28 101 65 203 87 355
69 473 -10 68 -9 77 6 86 10 5 68 45 129 87 151 105 299 230 431 366 102 104
110 111 113 87 2 -15 -6 -72 -18 -127z m-1342 -56 l22 -17 -60 -83 c-51 -69
-64 -81 -79 -73 -43 23 -42 33 16 114 31 42 61 77 67 77 6 0 21 -8 34 -18z
m170 -129 c6 -3 -112 -163 -119 -163 -4 0 -16 8 -28 18 l-21 17 61 83 c61 82
61 83 83 65 11 -10 23 -19 24 -20z m135 -97 c9 -7 17 -16 17 -20 0 -10 -109
-156 -116 -156 -14 0 -44 22 -44 32 0 14 108 158 118 158 4 0 15 -7 25 -14z
m1087 -107 c0 -33 4 -124 10 -202 35 -494 100 -1522 98 -1534 -2 -8 -68 42
-163 124 -167 142 -694 600 -779 676 l-49 43 79 54 c216 146 435 349 561 520
71 96 158 241 202 337 13 29 28 50 33 47 4 -3 8 -32 8 -65z m-935 -5 c14 -9
25 -21 25 -26 0 -13 -109 -158 -119 -158 -5 0 -19 8 -32 18 l-22 19 58 81 c32
45 60 82 62 82 2 0 15 -7 28 -16z"/>
<path d="M3380 3836 c-25 -7 -60 -21 -79 -30 -50 -27 -123 -104 -151 -161 -22
-43 -25 -63 -25 -150 1 -81 5 -109 23 -146 34 -73 96 -135 170 -171 60 -30 75
-33 152 -33 71 0 94 5 140 26 81 39 134 90 172 167 30 60 33 75 33 157 0 82
-3 97 -33 157 -38 77 -91 128 -171 166 -64 30 -164 38 -231 18z m173 -129
c103 -44 159 -150 136 -259 -35 -163 -234 -232 -364 -126 -129 107 -97 316 60
384 39 17 127 18 168 1z"/>
</g>
</svg>
